# Blender v2.81 (sub 16) OBJ File: ''
# www.blender.org
mtllib 4.mtl
o sheet1.002
v 16.314043 -15.542462 17.377588
v 18.140438 -13.582057 16.475891
v 18.695250 -10.879393 19.397627
v 20.362955 -9.400004 16.247194
v 21.332048 -9.052652 11.388168
v 20.766724 -10.013679 1.456614
v 19.881466 -8.938352 -8.470880
v 22.362301 -7.588084 -18.452164
v 19.898119 -8.376546 -21.847921
v 20.231810 -9.315772 -21.117502
v 21.087631 -8.583667 -19.687115
v 18.406717 -5.724207 -19.986540
v 20.838564 -4.344052 18.210966
v 20.629839 -1.001709 -9.744726
v 21.058451 -5.824220 -20.877134
v 16.859304 -13.410785 20.518150
v 18.435480 -6.214719 17.763231
v 22.674780 -3.306422 7.122870
v 13.708651 -11.204457 -21.065887
v 20.884811 -0.583056 -18.023232
v 19.913628 -1.112740 3.655684
v 20.554790 -0.820598 17.296873
v 14.317688 -3.123324 -20.161806
v -9.675005 8.229697 -19.211344
v -6.086728 11.163092 -18.856798
v -3.847015 12.652404 -15.105319
v -0.878295 11.442706 -13.819255
v -3.260624 12.732894 -10.596405
v -2.786333 11.554516 -6.220817
v -4.367708 10.145889 0.196240
v -3.780007 11.498536 13.257607
v 0.763838 10.775525 9.874633
v -5.529837 12.603228 15.817872
v -7.995024 11.104854 20.649042
v -11.242593 9.149240 21.122362
v -2.801582 3.296981 -19.148420
v -2.627749 12.480359 6.165384
v -2.726085 3.033295 20.836573
v -0.870552 3.893460 -17.844742
v -0.826409 6.163383 -6.505209
v 0.442326 7.433968 -4.120174
v 0.423212 7.230871 2.699460
v -6.646157 1.961726 22.499771
v -5.600414 1.128416 -21.392097
v 0.423732 -0.606783 -22.315517
v 1.022657 4.182065 -7.679863
v 3.278006 3.311018 10.242067
v 2.912206 4.026900 16.821087
v 3.746856 0.212264 2.144459
v 1.775756 0.994600 -17.365686
v 1.259257 3.286326 -10.512173
v -0.939352 -3.310934 -22.165787
v 4.405199 -0.033302 20.832108
v 2.761892 2.065400 -14.403163
v 5.427852 1.006305 7.655030
v 3.440386 0.891158 -8.865582
v 6.733366 1.204256 -17.439413
v 3.000296 -5.813623 -20.907007
v 10.645588 2.089931 13.279722
v 12.989783 0.928609 5.257204
v 14.883837 1.823606 -13.674934
v 21.583204 -0.822547 10.784442
v 13.628687 -2.402629 18.990290
vt 1.000000 0.000000
vt 1.000000 1.000000
vt 0.000000 0.307074
vt 0.225726 0.000000
vt 1.000000 0.794423
vt 1.000000 1.000000
vt 0.000000 1.000000
vt 0.000000 0.000000
vt 0.000000 0.479157
vt 1.000000 0.000000
vt 1.000000 1.047068
vt 1.000000 0.973447
vt 0.000000 1.000000
vt 0.669518 0.000000
vt 0.000000 0.000000
vt 1.000000 0.941652
vt 0.000000 1.000000
vt 1.000000 0.000000
vt 0.549780 1.000000
vt 0.000000 0.000000
vt 1.000000 0.894066
vt 0.000000 0.269480
vt 0.468277 0.965608
vt 1.000000 0.000000
vt 0.657466 1.000000
vt 0.000000 0.000000
vt 0.799063 0.485242
vt 0.326931 1.000000
vt 0.000000 0.000000
vt 0.214846 0.367161
vt 1.000000 0.085635
vt 0.000000 1.000000
vt 0.887737 0.000000
vt 0.000000 0.521353
vt 1.000000 0.000000
vt 1.000000 0.898462
vt 0.000000 1.000000
vt 1.000000 0.000000
vt 1.000000 1.000000
vt 0.163096 1.000000
vt 0.000000 0.000000
vt 1.000000 1.000000
vt 0.000000 1.000000
vt 0.000000 1.000000
vt 0.000000 0.000000
vt 0.408671 0.000000
vt 1.000000 1.000000
vt 0.618592 1.000000
vt 0.000000 0.000000
vt 1.000000 0.929233
vt 0.000000 1.000000
vt 0.505191 0.222506
vt 1.000000 1.000000
vt 0.899868 1.000000
vt 0.000000 0.000000
vt 0.067565 0.000000
vt 1.000000 0.452085
vt 0.000000 1.000000
vt 0.144608 0.000000
vt 0.768085 0.262106
vt 0.000000 1.000000
vt 1.000000 0.000000
vt 1.000000 1.000000
vt 0.000000 0.439072
vt 0.000000 0.223052
vt 1.000000 0.000000
vt 0.655918 1.000000
vt 0.000000 0.000000
vt 0.000000 0.000000
vt 1.000000 0.000000
vt 1.000000 1.000000
vt 0.000000 0.100987
vt 0.458039 0.000000
vt 1.000000 0.978952
vt 1.000000 1.000000
vt 0.000000 1.000000
vt 0.000000 0.649050
vt 1.000000 0.450370
vt 0.000000 1.000000
vt -0.011479 -0.019558
vt 1.000000 0.295278
vt 0.000000 0.000000
vt 0.000000 0.000000
vt 1.000000 0.563946
vt 0.313492 1.000000
vt 0.000000 0.000000
vt 1.000000 0.994875
vt 0.996591 0.993879
vt 0.277224 0.479938
vt 0.480180 0.000000
vt 1.000000 0.546655
vt 0.000000 1.000000
vt 1.000000 0.000000
vt 1.000000 0.615988
vt 0.455081 1.000000
vt 0.000000 1.000000
vt 0.000000 0.000000
vt 1.000000 0.452132
vt 0.000000 1.000000
vt 1.000000 0.879633
vt 0.000000 1.000000
vt 0.000000 0.000000
vt 0.000000 0.000000
vt 0.338782 0.000000
vt 1.000000 1.000000
vt 1.000000 0.944137
vt 0.000000 1.000000
vt 0.000000 0.998863
vt 1.000000 1.000000
vt 1.000000 0.000000
vt 1.000000 1.000000
vt 0.000000 0.571955
vt 1.000000 0.000000
vt 0.000000 0.616616
vt 1.000000 0.000000
vt 1.000000 1.000000
vt 0.000000 0.384523
vt 0.000000 0.697765
vt 0.000000 0.516210
vt 0.967773 0.000000
vt 0.849825 0.876091
vt 0.771983 0.000000
vt 1.000000 1.000000
vt 0.387443 1.000000
vt 0.000000 0.159029
vt 1.000000 0.000000
vt 0.013070 0.481586
vt 0.244304 0.000000
vt 1.000000 1.000000
vt 0.000000 1.000000
vt 0.949462 0.000000
vt 1.000000 1.000000
vt 0.751388 1.000000
vt 0.177955 0.000000
vt 1.000000 1.000000
vt 0.000000 1.000000
vt 0.821831 0.000000
vt 1.000000 1.000000
vt 0.000000 1.000000
vt 0.574741 0.000000
vt 1.000000 1.000000
vt 1.000000 1.000000
vt 0.000000 0.035891
vt 0.000000 0.178601
vt 0.014229 0.000000
vt 1.000000 0.011695
vt 0.000000 0.000000
vt 1.000000 0.000000
vt 0.142313 1.000000
vt 1.000000 0.000000
vt 0.000000 0.423293
vt 0.627872 0.205157
vt 0.766803 1.000000
vt 1.000000 0.105428
vt 0.630484 1.000000
vt 0.000000 0.348834
vt 1.000000 0.000000
vt 1.000000 1.000000
vt 1.000000 0.000000
vt 0.655282 1.000000
vt 0.000000 0.274325
vt 0.183016 0.000000
vt 0.000000 1.000000
vt 1.000000 1.000000
vt 0.000000 1.000000
vt 0.000000 0.000000
vt 0.000000 0.000000
vt 1.000000 0.492216
vt 1.000000 0.500889
vt 0.000000 0.000000
vt 1.000000 0.000000
vt 0.293861 1.000000
vt 1.000000 0.000000
vt 1.000000 1.000000
vt 0.000000 0.116775
vt 1.000000 0.000000
vt 0.390074 1.000000
vt 0.000000 0.139404
vt 0.343882 1.000000
vt 0.000000 0.000000
vt 1.000000 0.000000
vt 0.663366 1.000000
vt 1.000000 0.649583
vt 0.000000 0.282811
vt 0.000000 0.000000
vt 1.000000 0.213684
vt 0.382774 0.000000
vt 1.000000 0.018086
vt 0.000000 1.000000
vt 1.000000 1.000000
vt 0.000000 0.148870
vt 1.000000 0.561777
vt 1.000000 0.275379
vt 0.000000 0.605246
vt 1.000000 0.000000
vt 1.000000 0.528191
vt 0.000000 1.000000
vt 0.000000 0.745002
vt 0.000000 0.942932
vt 1.000000 0.000000
vt 1.000000 1.000000
vn 0.2875 0.9424 -0.1708
vn 0.2754 0.9406 -0.1984
vn 0.3216 0.9032 -0.2844
vn 0.2173 0.9440 -0.2484
vn -0.1290 0.2007 -0.9711
vn -0.1165 0.2058 -0.9716
vn -0.1144 0.1468 -0.9825
vn -0.0906 0.1662 -0.9819
vn 0.9978 0.0469 0.0477
vn 0.9961 0.0492 0.0734
vn 0.9976 0.0350 0.0600
vn 0.9919 -0.0047 0.1265
vn 0.9977 0.0291 0.0607
vn 0.9972 0.0566 0.0490
vn 0.5322 -0.1652 0.8303
vn 0.5559 -0.1428 0.8189
vn 0.1946 0.0061 0.9809
vn 0.8702 -0.3370 0.3595
vn 0.9509 -0.1990 0.2371
vn 0.9449 -0.1825 0.2717
vn -0.8589 -0.4701 0.2032
vn -0.6401 -0.1186 0.7591
vn -0.6346 -0.4126 0.6535
vn -0.9476 0.1555 0.2792
vn -0.8017 0.2258 0.5534
vn -0.8038 0.4118 0.4295
vn 0.9190 0.2092 -0.3342
vn 0.9112 0.2300 -0.3419
vn 0.9166 0.2161 -0.3365
vn 0.8175 0.3482 -0.4587
vn 0.8060 0.2073 -0.5544
vn 0.8251 0.2912 -0.4842
vn -0.0529 0.3315 0.9420
vn 0.1613 0.1931 0.9678
vn 0.2291 0.1758 0.9574
vn 0.2193 0.1576 0.9628
vn 0.1811 0.2626 0.9478
vn 0.1170 -0.1589 -0.9803
vn 0.1636 -0.1849 -0.9690
vn 0.0991 -0.1668 -0.9810
vn 0.1695 -0.1076 -0.9796
vn 0.0472 0.5367 -0.8425
vn 0.0433 0.5442 -0.8378
vn -0.0037 0.4230 -0.9061
vn 0.0506 0.5330 -0.8446
vn 0.3614 0.9314 0.0428
vn 0.2043 0.9719 0.1167
vn 0.3987 0.9163 0.0371
vn 0.0135 0.0723 0.9973
vn 0.1218 0.1081 0.9866
vn 0.0450 0.0707 0.9965
vn 0.6712 0.7001 0.2438
vn 0.7098 0.6492 0.2732
vn 0.7619 0.5888 0.2699
vn 0.7347 0.6409 0.2224
vn 0.0317 0.9458 -0.3233
vn 0.1512 0.8619 -0.4840
vn 0.1004 0.9131 -0.3952
vn 0.7280 0.5937 -0.3428
vn 0.7412 0.6102 -0.2798
vn 0.7361 0.5981 -0.3168
vn 0.6397 0.5176 0.5682
vn 0.6548 0.5138 0.5542
vn 0.6802 0.6198 0.3914
vn 0.6980 0.5383 0.4723
vn 0.5862 0.8061 0.0812
vn 0.7550 0.6208 -0.2111
vn 0.6073 0.7892 -0.0912
vn 0.9528 0.2503 0.1720
vn 0.9707 0.1841 0.1547
vn 0.9822 -0.0096 0.1877
vn 0.9716 0.1502 0.1826
vn 0.7742 0.6243 -0.1047
vn 0.7808 0.6242 -0.0261
vn 0.6427 0.7652 0.0384
vn 0.6810 0.7322 0.0032
vn 0.7317 0.6574 0.1798
vn 0.9254 0.3203 0.2026
vn 0.6373 0.5342 -0.5555
vn 0.6820 0.5617 -0.4684
vn 0.1742 0.6900 -0.7026
vn 0.2837 0.6963 -0.6593
vn 0.2744 0.7290 -0.6271
vn 0.2822 0.7450 -0.6044
vn 0.0784 0.9043 0.4197
vn 0.2218 0.8610 0.4576
vn 0.1292 0.8811 0.4549
vn 0.9763 -0.1920 0.0995
vn 0.9778 -0.2017 0.0569
vn 0.9788 -0.1884 0.0804
vn 0.9812 -0.1762 0.0783
vn 0.9774 -0.1831 0.1056
vn 0.0897 0.9960 -0.0021
vn 0.0552 0.9985 -0.0009
vn 0.0585 0.9974 0.0422
vn 0.0861 0.9594 -0.2687
vn 0.0816 0.9756 -0.2039
vn -0.0612 0.9645 -0.2568
vn 0.1450 0.9560 -0.2548
vn 0.1143 0.9499 -0.2909
vn 0.3838 0.9143 0.1294
vn 0.4669 0.8838 -0.0319
vn 0.4247 0.9022 0.0748
vn 0.3648 0.8340 -0.4140
vn 0.4103 0.8468 -0.3384
vn 0.5247 0.7754 -0.3514
vn -0.0056 0.1109 -0.9938
vn 0.0094 0.0571 -0.9983
vn 0.0001 0.1056 -0.9944
vn 0.0558 0.1013 -0.9933
vn -0.0561 -0.0001 -0.9984
vn 0.6442 -0.3377 -0.6863
vn 0.8468 -0.0598 -0.5285
vn 0.9434 -0.0617 -0.3258
vn 0.4169 -0.4199 0.8061
vn -0.0693 -0.1534 0.9857
vn -0.3259 -0.5493 0.7695
vn -0.9887 0.1137 -0.0978
vn -0.9570 0.2890 -0.0247
vn -0.8628 0.1702 0.4760
vn 0.9724 -0.2321 0.0239
vn 0.9739 -0.2265 0.0164
vn 0.9363 -0.3512 0.0030
vn 0.0998 0.9948 -0.0219
vn 0.0261 0.9996 0.0075
vn 0.1407 0.9856 -0.0939
vn 0.1114 0.9911 -0.0726
vn 0.1353 0.9908 -0.0091
vn 0.1204 0.9906 0.0656
vn 0.0768 0.9970 -0.0069
vn 0.0927 -0.2036 0.9747
vn 0.3556 -0.1806 0.9170
vn 0.2378 -0.1190 0.9640
vn 0.7670 -0.1055 -0.6329
vn 0.7578 -0.3580 -0.5455
vn 0.7022 -0.4199 -0.5751
vn -0.3319 0.1365 0.9334
vn -0.4015 0.2742 0.8738
vn -0.3236 0.3202 0.8904
vn 0.4039 0.9135 -0.0483
vn 0.4098 0.9110 0.0458
vn 0.4550 0.8864 -0.0852
vn 0.5256 0.6696 -0.5247
vn 0.5506 0.6381 -0.5382
vn 0.5073 0.6348 -0.5828
vn 0.8599 0.4036 0.3126
vn 0.7866 0.5011 0.3608
vn 0.7688 0.4997 0.3991
vn 0.8039 0.5419 0.2451
vn 0.0401 0.0726 -0.9966
vn 0.0258 0.0852 -0.9960
vn 0.0412 0.0651 -0.9970
vn -0.5184 0.6109 -0.5984
vn -0.4629 0.7095 -0.5313
vn -0.1937 0.6428 -0.7411
vn 0.8850 0.0542 -0.4625
vn 0.8608 0.1177 -0.4951
vn 0.9194 -0.0843 -0.3841
vn 0.4806 0.7595 -0.4384
vn 0.7288 0.6438 -0.2334
vn 0.6912 0.6625 -0.2887
vn 0.9410 0.1480 -0.3043
vn 0.9388 0.1752 -0.2965
vn 0.9370 0.1781 -0.3006
vn 0.8379 0.5351 -0.1074
vn 0.7510 0.6469 0.1321
vn 0.8707 0.4918 -0.0066
vn 0.9640 0.2661 0.0018
vn 0.9752 0.2213 0.0005
vn 0.9230 0.3780 0.0718
vn 0.8599 -0.3776 -0.3434
vn 0.7037 -0.6333 -0.3219
vn 0.8692 -0.4696 0.1550
vn 0.9567 0.2608 -0.1293
vn 0.9223 0.3287 -0.2034
vn 0.8673 0.4885 -0.0957
vn 0.9492 0.3144 -0.0123
vn 0.8043 0.5703 -0.1666
vn 0.9269 0.3474 0.1418
vn 0.7498 0.5971 -0.2851
vn 0.6593 0.6450 -0.3864
vn 0.6644 0.6571 -0.3561
vn 0.5368 0.7756 -0.3322
vn 0.4880 0.8092 -0.3272
vn 0.5344 0.8093 -0.2437
vn 0.0997 0.6615 0.7432
vn 0.0013 0.6849 0.7286
vn -0.0807 0.6089 0.7891
vn -0.0334 -0.5132 0.8576
vn 0.1494 -0.4881 0.8599
vn -0.1611 -0.4797 0.8625
vn 0.2466 0.9581 -0.1457
vn 0.2140 0.9723 -0.0937
vn 0.1584 0.9826 -0.0967
vn 0.7082 0.4445 -0.5485
vn 0.3553 0.5326 -0.7682
vn 0.5459 0.3471 -0.7626
vn 0.5804 0.3671 -0.7269
vn 0.6424 0.3243 -0.6944
vn -0.0800 0.9713 0.2239
vn -0.0723 0.9729 0.2196
vn 0.0436 0.9914 0.1233
vn 0.3795 0.7863 0.4876
vn 0.4108 0.6370 0.6523
vn 0.3761 0.7426 0.5541
vn 0.3191 0.7473 0.5828
vn 0.3146 0.7496 0.5823
vn 0.3342 0.8911 0.3072
vn 0.2954 0.4263 0.8550
vn 0.3830 0.3825 0.8408
vn 0.2726 0.4321 0.8596
vn 0.2706 0.3338 0.9030
vn 0.3361 0.8909 0.3054
vn 0.4365 0.8539 0.2835
vn 0.3251 0.9196 0.2203
usemtl Material.003
s off
f 59/1/1 62/2/2 55/3/3 47/4/4
f 45/5/5 52/6/6 44/7/7 24/8/8
f 14/9/9 21/10/10 6/11/11 7/12/12 8/13/13 20/14/14
f 17/15/15 1/16/16 2/17/17
f 3/18/18 4/19/19 13/20/20
f 11/21/21 12/22/22 10/23/23
f 15/24/24 9/25/25 10/26/26
f 20/27/27 8/28/28 15/29/29
f 21/30/30 18/31/31 6/32/32
f 53/33/33 63/34/34 43/35/35 16/36/36 22/37/37
f 45/38/38 23/39/39 58/40/40 52/41/41
f 20/42/42 15/43/43 23/44/44 57/45/45
f 37/46/46 31/47/47 32/48/48
f 34/49/49 35/50/50 38/51/51
f 29/52/52 30/53/53 41/54/54 28/55/55
f 30/56/56 37/57/57 41/58/58
f 37/59/59 32/60/60 42/61/61
f 34/62/62 38/63/63 32/64/64 33/65/65
f 51/66/66 54/67/67 39/68/68
f 62/69/69 22/70/70 13/71/71 18/72/72
f 46/73/73 49/74/74 56/75/75 54/76/76 51/77/77
f 54/78/78 50/79/79 39/80/80
f 57/81/81 23/44/82 45/82/83 36/83/84
f 56/84/85 14/85/86 61/86/87
f 13/20/88 4/87/89 5/88/90 6/32/91 18/89/92
f 53/90/93 22/91/94 62/92/95
f 54/93/96 61/94/97 20/95/98 57/96/99 50/97/100
f 14/98/101 20/99/102 61/86/103
f 62/100/104 18/101/105 60/102/106
f 58/103/107 23/104/108 15/105/109 10/106/110 19/107/111
f 9/108/112 15/24/113 8/109/114
f 17/110/115 2/111/116 13/112/117
f 13/113/118 2/111/119 3/114/120
f 16/115/121 1/116/122 17/117/123
f 56/118/124 49/119/125 55/120/126 62/121/127 60/122/128 21/123/129 14/124/130
f 19/125/131 10/126/132 12/127/133
f 22/128/134 16/129/135 17/130/136
f 22/131/137 17/132/138 13/133/139
f 26/134/140 28/135/141 27/136/142
f 26/137/143 27/138/144 25/139/145
f 28/140/146 40/141/147 46/142/148 27/143/149
f 36/144/150 24/145/151 25/146/152
f 31/147/153 33/148/154 32/149/155
f 41/150/156 40/141/157 28/151/158
f 24/8/159 36/152/160 45/153/161
f 39/80/162 27/154/163 51/155/164
f 41/156/165 37/157/166 42/158/167
f 46/159/168 51/160/169 27/161/170
f 41/162/171 42/158/172 40/163/173
f 49/164/174 46/165/175 42/166/176 32/167/177 48/168/178 47/169/179
f 40/170/180 42/171/181 46/172/182
f 47/173/183 55/174/184 49/175/185
f 36/83/186 50/176/187 57/177/188
f 53/178/189 43/35/190 63/179/191
f 47/180/192 48/181/193 59/182/194
f 39/183/195 50/79/196 36/184/197 25/185/198 27/186/199
f 54/187/200 56/188/201 61/189/202
f 48/190/203 32/191/204 38/192/205 53/193/206 62/92/207 59/194/208
f 35/195/209 43/196/210 53/197/211 38/198/212
f 21/199/213 60/200/214 18/201/215
